<?xml version="1.0" encoding="UTF-8"?>
<svg id="Layer_1" data-name="Layer 1" xmlns="http://www.w3.org/2000/svg" viewBox="0 0 1000 1000">
  <defs>
    <style>
      .cls-1, .cls-2 {
        fill: #010101;
      }

      .cls-3 {
        fill: #e40f2c;
      }

      .cls-3, .cls-4 {
        stroke: #000;
        stroke-width: 10px;
      }

      .cls-3, .cls-4, .cls-2 {
        stroke-miterlimit: 10;
      }

      .cls-4 {
        fill: #fff;
      }

      .cls-5 {
        fill: #1d1d1b;
      }

      .cls-6 {
        fill: #b3b3b3;
      }

      .cls-2 {
        stroke: #1e1e1c;
      }
    </style>
  </defs>
  <g id="dedicated">
    <g>
      <rect class="cls-1" x="433.4" y="721.61" width="350.28" height="157.53"/>
      <rect class="cls-4" x="403.34" y="91.5" width="410.39" height="764.51"/>
      <rect x="403.34" y="145.97" width="410.39" height="6.38"/>
      <path class="cls-6" d="M458.46,188.25h300.16c6.06,0,10.99,4.92,10.99,10.99v47.25c0,6.06-4.92,10.99-10.99,10.99h-300.16c-6.07,0-10.99-4.92-10.99-10.99v-47.25c0-6.06,4.92-10.99,10.99-10.99Z"/>
      <path class="cls-6" d="M458.46,278.78h300.16c6.06,0,10.99,4.92,10.99,10.99v47.25c0,6.06-4.92,10.99-10.99,10.99h-300.16c-6.07,0-10.99-4.92-10.99-10.99v-47.25c0-6.06,4.92-10.99,10.99-10.99Z"/>
      <g>
        <path class="cls-6" d="M458.46,369.3h300.16c6.06,0,10.99,4.92,10.99,10.99v47.25c0,6.06-4.92,10.99-10.99,10.99h-300.16c-6.07,0-10.99-4.92-10.99-10.99v-47.25c0-6.07,4.92-10.99,10.99-10.99Z"/>
        <path class="cls-6" d="M458.46,459.29h300.16c6.06,0,10.99,4.92,10.99,10.99v47.25c0,6.06-4.92,10.99-10.99,10.99h-300.16c-6.07,0-10.99-4.92-10.99-10.99v-47.25c0-6.06,4.92-10.99,10.99-10.99Z"/>
      </g>
      <path class="cls-6" d="M458.46,550.35h300.16c6.06,0,10.99,4.92,10.99,10.99v47.25c0,6.06-4.92,10.99-10.99,10.99h-300.16c-6.07,0-10.99-4.92-10.99-10.99v-47.25c0-6.07,4.92-10.99,10.99-10.99Z"/>
      <path class="cls-6" d="M458.46,640.88h300.16c6.06,0,10.99,4.92,10.99,10.99v47.25c0,6.06-4.92,10.99-10.99,10.99h-300.16c-6.07,0-10.99-4.92-10.99-10.99v-47.25c0-6.06,4.92-10.99,10.99-10.99Z"/>
      <path class="cls-6" d="M458.46,731.41h300.16c6.06,0,10.99,4.92,10.99,10.99v47.25c0,6.06-4.92,10.99-10.99,10.99h-300.16c-6.07,0-10.99-4.92-10.99-10.99v-47.25c0-6.06,4.92-10.99,10.99-10.99Z"/>
    </g>
    <g>
      <path class="cls-5" d="M302.42,848.94s-3.98,28.57-2.23,34.29c1.05,3.43,6.09,5.65,10.84,5.65h66.45c6.23,0,10.83-6.47,8.12-12.08-3.4-7.05-13.3-16.1-39.27-24.16l-43.91-3.7Z"/>
      <path class="cls-4" d="M375.77,479.33c-26.09-7.82-71.87,7.4-72.08,7.77.22.04.36.09.32.13-19.46,77.48,3.54,142.2-.49,201.99-3.19,47.47-3.63,168.82-3.63,168.82h53.65s20.1-96.99,17.71-197.6c-1.15-48.46,4.52-181.11,4.52-181.11Z"/>
      <path class="cls-5" d="M225.41,860.68s.58,5.34-1.17,10.52c-1.81,5.34-3.35,14.5.11,17.09,30.09,22.57,50.92,20.13,50.92,20.13,6.23,0,11.48-1.49,12.99-7.53.79-3.17-7.08-21.36-22.11-38.75l-40.73-1.46Z"/>
      <path class="cls-4" d="M356.75,472.42c-26.09-7.82-120.15,12.25-120.15,12.25-19.46,77.48,3.84,141.29-2.96,200.83-9.1,79.75-13.87,182.04-13.87,182.04h53.65s19.71-106.69,26.53-207.1c1.84-27.09,9.09-84.67,18.46-101.64,25.54-46.23,38.34-86.38,38.34-86.38Z"/>
      <path class="cls-4" d="M492.66,419.6c-8.47-2.4-18.25-.38-23.97,1.17,1.58,7,3.39,13.97,4.69,21.06,2.61-.35,5.17-.51,7.49-.3,12.92,1.16,59.42,11.89,51.04,1.83-9.84-11.81-25.37-19.83-39.24-23.76Z"/>
      <path class="cls-3" d="M473.47,445.29s-93.6,7.96-100.25-7.85c-21.55-51.23-6.04-144.26-6.04-144.26,0,0,28.42,8.63,36.48,41.12,5.65,22.78,6.91,55.06,23.63,71.11,1.66,1.59,51.83,9.65,51.83,9.65l-5.66,30.22Z"/>
      <path class="cls-3" d="M231.25,474.89c-1.3,6.27-3.18,30.08-4.3,41.48,21.97,9.91,132.18,11.71,150.68,3.9,5.82-43.92,5.13-90.55,5.51-93.97,1.97-17.74-7.13-96.46.21-120.76-11.32-14.19-39.38-21.4-39.38-21.4-.47.89-14.59,6.7-28.39,7.45-13.71,1.89-27.67-2.65-38.55-13.26-.76-.74-44.72,5.87-45.81,14.08-4.6,34.66,15.34,108.67.02,182.49Z"/>
      <path class="cls-4" d="M343.95,283.53c-14.08-7.74-11.79-36.12-12.32-48.73-6.3,6.4-14.45,10.75-23.68,11.54-7.4.63-15.51-35.49-22-38.31,1.36,12.79-1.8,60.1-13.31,69.15-1.6,1.26-2.44,1.62-4.68,2.55,5.38,6.21,13.04,13.12,20.78,15.61,10.98,3.53,48.63,4.68,55.21-11.8Z"/>
      <path class="cls-4" d="M304.92,165.62s52.65-3.03,55.14,11.23c2.49,14.26,3.78,26.37,4.33,33.94.73,9.98-6.72,56.8-28.33,54.96-24.66-2.1-36.66-18.33-40.01-26.97-1.38-3.56-1.41-4.76-2.41-9.94,0,0-9.76-3-14.09-10.94-2.78-5.09-6.82-18.54-7.05-20.87-2.02-20.49,17.96-29.41,32.41-31.4Z"/>
      <path class="cls-2" d="M294.79,233.83l-10.52,1.52s-20.13-28.28-14.56-64.88c4.46-29.37,23.49-17.26,23.49-17.26,0,0-3.02-17.13,39.11-9.47,0,0,20.55,8.39,33.72,2.19,0,0,16.22,41.09-20.69,35.23-33.65-5.34-34.84-10.77-42.7-10.63,0,0,.14,28.98,2.92,42.43l-7.74-.22s-3.63-20.74-12.72-17.41c-5.57,2.04-7.83,9.17-5.4,15.21,3.44,8.55,13.56,16.31,13.56,16.31l1.53,6.97Z"/>
      <path d="M369.38,436.04h300.16c6.06,0,10.99,4.92,10.99,10.99v47.25c0,6.07-4.92,10.99-10.99,10.99h-300.15c-6.06,0-10.99-4.92-10.99-10.99v-47.25c0-6.06,4.92-10.99,10.99-10.99Z"/>
      <path class="cls-4" d="M314.09,472.16s21.41,9.61,31.69,10.77c10.28,1.16,28.45,5.95,33.19,6.96,4.36.93,6.67,3.79,3.59,5.04-5.48,2.21-21.88-.3-19.57,1.18,3.28,2.12,37.2,6.48,36.47,11.57-.73,5.09-33.78,6.02-39.66,3.69-5.88-2.33-18.41-11.59-22.69-13.71-4.28-2.12-30.74-2.78-30.74-2.78,0,0,1.83-22.06,7.72-22.72Z"/>
      <path class="cls-3" d="M202.99,453.24c-14.69-7.05-18.44-18.64-16.05-34.76,4.82-32.53,11.79-98.2,29.03-120.48,7.23-9.35,25.02-12.17,25.02-12.17,0,0,31.38,20.02,9.33,110.87-2.09,8.63-5.45,18.6,1.64,23.95,20.41,15.39,74.8,50.97,74.8,50.97l-16.7,29.32s-57.38-23.84-107.07-47.7Z"/>
    </g>
  </g>
</svg>