<?xml version="1.0" encoding="UTF-8"?>
<svg id="Layer_1" data-name="Layer 1" xmlns="http://www.w3.org/2000/svg" viewBox="0 0 1000 1000">
  <defs>
    <style>
      .cls-1 {
        fill: #e40f2c;
      }

      .cls-1, .cls-2 {
        stroke: #000;
      }

      .cls-1, .cls-2, .cls-3, .cls-4 {
        stroke-width: 10px;
      }

      .cls-1, .cls-2, .cls-3, .cls-4, .cls-5 {
        stroke-miterlimit: 10;
      }

      .cls-2, .cls-3 {
        fill: #fff;
      }

      .cls-3, .cls-4 {
        stroke: #010101;
      }

      .cls-6 {
        fill: #1d1d1b;
      }

      .cls-4 {
        fill: #e62333;
      }

      .cls-7 {
        fill: #b3b3b3;
      }

      .cls-5 {
        fill: #010101;
        stroke: #1e1e1c;
      }
    </style>
  </defs>
  <g id="dedicated">
    <g id="dedicated-3d">
      <g id="shadow">
        <path class="cls-7" d="M221.91,821.09s-1.42,29.08.8,34.45c1.33,3.23,6.44,4.55,11.09,3.73l65.01-11.56c6.09-1.08,10.03-8.31,6.89-13.41-3.94-6.41-14.41-13.68-40.51-17.17l-43.28,3.96Z"/>
        <path class="cls-7" d="M261.6,441.15c-26.2-3.23-69.67,19.86-69.83,20.25.22,0,.36.02.32.07-12.31,80.36,15.8,140.65,17.05,200.75.99,47.71,11.09,168.34,11.09,168.34l52.48-9.33s11.25-99.85.18-199.38c-5.33-47.94-11.29-180.71-11.29-180.71Z"/>
        <path class="cls-7" d="M147.59,846.15s1.03,5.21-.23,10.65c-1.3,5.62-2.02,14.99,1.59,16.96,31.4,17.18,51.56,11.14,51.56,11.14,6.09-1.08,11.1-3.48,12.06-9.74.5-3.29-8.78-19.99-25-34.65l-39.97,5.64Z"/>
        <path class="cls-7" d="M242.39,437.6c-26.2-3.23-116.47,33.07-116.47,33.07-12.31,80.36,16.01,139.7,14.53,200.03-1.99,80.81,2.22,183.25,2.22,183.25l52.48-9.33s10.02-109.42,7.99-210.35c-.55-27.24,1.54-85.7,9.24-104.18,20.97-50.37,30.01-92.49,30.01-92.49Z"/>
        <path class="cls-7" d="M354.22,390.34s-90.87,24.19-98.74,9.64c-25.52-47.15-18.42-142.26-18.42-142.26,0,0,28.55,3.63,39.26,34.5,7.5,21.64,11.54,53.49,29.28,66.53,1.76,1.29,51.54.57,51.54.57l-2.92,31.01Z"/>
        <path class="cls-7" d="M119.84,461.88c-.73,6.46-.5,30.43-.61,41.95,22.35,6.03,130.32-11.37,147.74-22.34,1.88-44.64-2.84-90.84-2.76-94.31.38-17.96-15.34-94.59-10.27-120-12.3-12.13-40.38-14.41-40.38-14.41-.38.97-13.69,9.2-27.12,12.34-13.25,4.27-27.3,2.19-38.86-6.46-.8-.6-43.23,13.62-43.59,21.95-1.49,35.23,24.44,105.28,15.85,181.29Z"/>
        <path class="cls-7" d="M213.48,252.18c-14.45-5.24-14.67-33.83-16.28-46.27-5.61,7.45-13.21,13.2-22.16,15.58-7.18,1.91-18.25-32.56-24.85-34.23,2.44,12.47,3.45,60.02-7.02,71.01-1.45,1.53-2.24,2.03-4.35,3.34,5.81,5.23,13.89,10.77,21.68,11.89,11.05,1.6,47.98-3.82,52.98-21.33Z"/>
        <path class="cls-7" d="M165.08,141.83s51.24-12.17,54.91,1.56c3.68,13.74,5.98,25.54,7.18,32.96,1.58,9.79-1.64,57.6-22.94,59.53-24.31,2.2-37.45-11.83-41.48-19.83-1.65-3.29-1.79-4.48-3.22-9.46,0,0-9.81-1.29-14.73-8.42-3.16-4.58-8.28-17.23-8.7-19.5-3.76-20.01,15.02-32.34,28.98-36.83Z"/>
        <path class="cls-7" d="M161.08,211.35l-10.16,3.34s-22.14-24.6-19.87-61.92c1.82-29.95,21.48-21.23,21.48-21.23,0,0-4.44-16.49,37.44-16.21,0,0,20.83,4.76,33.17-3.7,0,0,19.43,38-17.18,38.6-33.38.55-35.02-4.64-42.69-3.13,0,0,2.66,28.76,6.54,41.64l-7.59,1.13s-5.35-19.97-13.95-15.08c-5.27,3-6.87,10.47-3.96,16.05,4.11,7.9,14.68,13.84,14.68,13.84l2.1,6.66Z"/>
        <path class="cls-7" d="M90.31,445.3c-14.98-4.45-19.66-15.31-18.72-31.74,1.89-33.15,3.01-99.6,17.95-124.74,6.26-10.54,23.42-16.45,23.42-16.45,0,0,32.44,14.43,18.74,108.52-1.3,8.94-3.72,19.43,3.68,23.5,21.3,11.73,77.59,37.62,77.59,37.62l-13.79,32.04s-58.2-13.7-108.88-28.76Z"/>
      </g>
      <g>
        <path class="cls-6" d="M230.62,839.54s-4.17,30.68-2.33,36.31c1.1,3.38,6.37,4.68,11.33,3.73l69.5-13.39c6.51-1.25,11.32-8.95,8.49-14.27-3.56-6.68-13.91-14.16-41.07-17.35l-45.92,4.97Z"/>
        <path class="cls-2" d="M307.34,438.23c-27.29-2.92-75.17,22.22-75.38,22.64.23,0,.37.02.33.07-20.35,84.96,3.7,148.01-.51,211.35-3.34,50.28-3.8,177.29-3.8,177.29l56.11-10.81s21.02-105.48,18.52-210.22c-1.21-50.45,4.73-190.32,4.73-190.32Z"/>
        <path class="cls-6" d="M150.08,867.34s.61,5.47-1.22,11.24c-1.89,5.95-3.5,15.84.12,17.86,31.47,17.54,53.25,10.79,53.25,10.79,6.51-1.25,12.01-3.87,13.59-10.5.83-3.48-7.41-20.91-23.13-36.07l-42.6,6.68Z"/>
        <path class="cls-2" d="M287.44,434.83c-27.29-2.92-125.66,37.01-125.66,37.01-20.35,84.96,4.02,147-3.09,210.63-9.52,85.24-14.51,193.17-14.51,193.17l56.11-10.81s20.61-115.55,27.75-221.93c1.93-28.71,9.5-90.38,19.31-110.02,26.71-53.49,40.1-98.06,40.1-98.06Z"/>
        <path class="cls-2" d="M429.58,352.21c-8.86-.81-19.09,3.28-25.07,6.06,1.66,7.01,3.55,13.93,4.9,21.08,2.73-.89,5.41-1.58,7.83-1.82,13.51-1.39,62.14.47,53.38-8.36-10.29-10.37-26.53-15.63-41.04-16.95Z"/>
        <path class="cls-1" d="M409.52,382.95s-97.89,27.18-104.84,11.98c-22.53-49.24-6.31-149.65-6.31-149.65,0,0,29.72,3.3,38.16,35.66,5.91,22.68,7.23,56.19,24.71,69.61,1.73,1.33,54.21-.34,54.21-.34l-5.92,32.75Z"/>
        <path class="cls-1" d="M156.19,462.69c-1.36,6.82-3.32,32.09-4.5,44.25,22.98,5.94,138.24-14.38,157.59-26.27,6.08-47.1,5.37-95.73,5.76-99.39,2.06-18.95-7.45-99.45.22-126.34-11.84-12.57-41.18-14.45-41.18-14.45-.49,1.03-15.26,9.95-29.69,13.5-14.34,4.74-28.94,2.81-40.32-6.1-.79-.62-46.77,15.15-47.91,23.95-4.81,37.18,16.05,110.56.02,190.85Z"/>
        <path class="cls-2" d="M274.05,239.86c-14.73-5.26-12.33-35.4-12.89-48.48-6.59,7.96-15.12,14.16-24.77,16.84-7.74,2.15-16.22-33.99-23.01-35.64,1.42,13.1-1.88,63.22-13.91,75-1.67,1.64-2.55,2.19-4.89,3.6,5.63,5.41,13.64,11.1,21.73,12.14,11.49,1.48,50.86-4.9,57.74-23.46Z"/>
        <path class="cls-2" d="M233.24,124.41s55.06-13.78,57.67.64c2.61,14.41,3.95,26.82,4.53,34.62.76,10.29-7.03,60.76-29.63,63.18-25.79,2.77-38.34-11.78-41.84-20.15-1.44-3.44-1.48-4.69-2.52-9.92,0,0-10.21-1.18-14.74-8.61-2.91-4.77-7.13-18.02-7.37-20.41-2.12-21.02,18.78-34.38,33.89-39.36Z"/>
        <path class="cls-5" d="M222.65,197.78l-11,3.71s-21.05-25.53-15.23-64.92c4.67-31.61,24.56-22.78,24.56-22.78,0,0-3.16-17.31,40.9-17.78,0,0,21.49,4.64,35.26-4.51,0,0,16.96,39.7-21.64,41.02-35.19,1.2-36.44-4.25-44.66-2.51,0,0,.15,30.28,3.06,43.78l-8.1,1.33s-3.79-20.96-13.3-15.65c-5.83,3.26-8.19,11.17-5.65,17,3.6,8.25,14.19,14.32,14.19,14.32l1.6,6.99Z"/>
        <path class="cls-2" d="M242.83,443.14s22.4,5.74,33.15,4.88c10.75-.86,29.75.49,34.71.6,4.56.1,6.97,2.62,3.75,4.55-5.73,3.42-22.88,4.09-20.47,5.18,3.43,1.55,38.9-.71,38.14,4.75-.76,5.47-35.32,13.1-41.47,11.85-6.15-1.25-19.25-8.42-23.73-9.77-4.48-1.36-32.15,3.29-32.15,3.29,0,0,1.91-23.44,8.08-25.32Z"/>
        <path class="cls-1" d="M126.63,445.74c-15.36-4.42-19.29-15.78-16.79-33.12,5.04-34.99,12.33-105.07,30.36-131.85,7.56-11.23,26.17-17.77,26.17-17.77,0,0,32.82,14.62,9.76,114.07-2.19,9.45-5.7,20.55,1.71,24.71,21.35,11.98,78.23,38.24,78.23,38.24l-17.47,34.03s-60.01-13.38-111.98-28.32Z"/>
      </g>
      <g id="web-sunucu">
        <g>
          <path class="cls-3" d="M676.33,558.86l-73.18,7.09-211.26,20.48c-7.05.68-12.79,7.58-12.79,15.4v145.86c0,7.83,5.73,13.61,12.79,12.92l211.26-20.48,73.18-7.09,239.41-23.21c7.07-.68,12.79-7.58,12.79-15.4v-145.86c0-7.83-5.72-13.61-12.79-12.92l-239.41,23.21ZM438.12,663.92c-14.09,1.37-25.49-10.18-25.49-25.8s11.4-29.36,25.49-30.73c14.1-1.37,25.51,10.18,25.51,25.78s-11.42,29.37-25.51,30.74ZM503.13,657.62c-14.09,1.37-25.51-10.18-25.51-25.79s11.42-29.36,25.51-30.73c14.09-1.37,25.5,10.18,25.5,25.78s-11.4,29.37-25.5,30.74ZM902.14,678.44c0,3.9-2.66,7.32-5.95,7.64l-199.42,19.33c-3.29.32-5.97-2.58-5.97-6.48v-6.28c0-3.88,2.68-7.31,5.97-7.63l199.42-19.33c3.29-.32,5.95,2.59,5.95,6.47v6.28ZM902.14,630.69c0,3.9-2.66,7.3-5.95,7.62l-199.42,19.33c-3.29.32-5.97-2.57-5.97-6.46v-6.3c0-3.89,2.68-7.3,5.97-7.62l199.42-19.33c3.29-.32,5.95,2.58,5.95,6.47v6.3ZM902.14,582.94c0,3.89-2.66,7.3-5.95,7.62l-199.42,19.33c-3.29.32-5.97-2.58-5.97-6.47v-6.29c0-3.89,2.68-7.3,5.97-7.62l199.42-19.33c3.29-.32,5.95,2.58,5.95,6.47v6.29Z"/>
          <path class="cls-3" d="M438.12,607.4c-14.09,1.37-25.49,15.13-25.49,30.73s11.4,27.16,25.49,25.8c14.1-1.37,25.51-15.13,25.51-30.74s-11.42-27.15-25.51-25.78Z"/>
          <path class="cls-3" d="M477.61,631.82c0,15.61,11.42,27.16,25.51,25.79,14.09-1.37,25.5-15.12,25.5-30.74s-11.4-27.15-25.5-25.78c-14.09,1.37-25.51,15.13-25.51,30.73Z"/>
          <path class="cls-3" d="M696.77,589.51c-3.29.32-5.97,3.73-5.97,7.62v6.29c0,3.89,2.68,6.79,5.97,6.47l199.42-19.33c3.29-.32,5.95-3.73,5.95-7.62v-6.29c0-3.89-2.66-6.79-5.95-6.47l-199.42,19.33Z"/>
          <path class="cls-3" d="M696.77,637.26c-3.29.32-5.97,3.73-5.97,7.62v6.3c0,3.9,2.68,6.78,5.97,6.46l199.42-19.33c3.29-.32,5.95-3.72,5.95-7.62v-6.3c0-3.89-2.66-6.79-5.95-6.47l-199.42,19.33Z"/>
          <path class="cls-3" d="M696.77,685.01c-3.29.32-5.97,3.74-5.97,7.63v6.28c0,3.9,2.68,6.8,5.97,6.48l199.42-19.33c3.29-.32,5.95-3.73,5.95-7.64v-6.28c0-3.88-2.66-6.79-5.95-6.47l-199.42,19.33Z"/>
        </g>
        <g>
          <polygon class="cls-3" points="696.11 557.13 696.11 531.18 622.93 538.27 622.93 564.22 696.11 557.13"/>
          <path class="cls-4" d="M332.56,391.48c-7.05.68-12.79,7.58-12.79,15.4v145.86c0,7.83,5.73,13.61,12.79,12.93l211.26-20.48,73.18-7.09,239.41-23.21c7.07-.68,12.79-7.58,12.79-15.41v-145.86c0-7.83-5.72-13.61-12.79-12.92l-523.84,50.78ZM378.79,468.97c-14.09,1.37-25.49-10.19-25.49-25.79s11.4-29.37,25.49-30.73c14.1-1.37,25.51,10.18,25.51,25.79s-11.42,29.37-25.51,30.74ZM443.79,462.67c-14.09,1.37-25.51-10.18-25.51-25.79s11.42-29.37,25.51-30.74c14.09-1.37,25.5,10.18,25.5,25.79s-11.4,29.37-25.5,30.73ZM842.81,483.49c0,3.89-2.66,7.32-5.95,7.64l-199.42,19.33c-3.29.32-5.97-2.59-5.97-6.48v-6.29c0-3.89,2.68-7.3,5.97-7.62l199.42-19.33c3.29-.32,5.95,2.58,5.95,6.46v6.29ZM842.81,435.75c0,3.89-2.66,7.3-5.95,7.61l-199.42,19.33c-3.29.32-5.97-2.57-5.97-6.46v-6.31c0-3.89,2.68-7.3,5.97-7.62l199.42-19.33c3.29-.32,5.95,2.57,5.95,6.46v6.31ZM842.81,387.99c0,3.89-2.66,7.3-5.95,7.62l-199.42,19.33c-3.29.32-5.97-2.58-5.97-6.46v-6.3c0-3.88,2.68-7.31,5.97-7.63l199.42-19.33c3.29-.32,5.95,2.59,5.95,6.47v6.3Z"/>
          <path class="cls-3" d="M378.79,412.44c-14.09,1.37-25.49,15.13-25.49,30.73s11.4,27.16,25.49,25.79c14.1-1.37,25.51-15.13,25.51-30.74s-11.42-27.16-25.51-25.79Z"/>
          <path class="cls-3" d="M418.28,436.88c0,15.61,11.42,27.16,25.51,25.79,14.09-1.37,25.5-15.13,25.5-30.73s-11.4-27.16-25.5-25.79c-14.09,1.37-25.51,15.13-25.51,30.74Z"/>
          <path class="cls-3" d="M637.43,394.55c-3.29.32-5.97,3.74-5.97,7.63v6.3c0,3.89,2.68,6.78,5.97,6.46l199.42-19.33c3.29-.32,5.95-3.73,5.95-7.62v-6.3c0-3.88-2.66-6.79-5.95-6.47l-199.42,19.33Z"/>
          <path class="cls-3" d="M637.43,442.31c-3.29.32-5.97,3.72-5.97,7.62v6.31c0,3.89,2.68,6.78,5.97,6.46l199.42-19.33c3.29-.32,5.95-3.72,5.95-7.61v-6.31c0-3.89-2.66-6.78-5.95-6.46l-199.42,19.33Z"/>
          <path class="cls-3" d="M637.43,490.07c-3.29.32-5.97,3.73-5.97,7.62v6.29c0,3.89,2.68,6.8,5.97,6.48l199.42-19.33c3.29-.32,5.95-3.74,5.95-7.64v-6.29c0-3.89-2.66-6.78-5.95-6.46l-199.42,19.33Z"/>
          <polygon class="cls-3" points="696.11 350.94 696.11 324.99 622.93 332.09 622.93 358.04 696.11 350.94"/>
        </g>
        <g>
          <path class="cls-3" d="M391.89,181.78c-7.05.68-12.79,7.58-12.79,15.4v145.86c0,7.83,5.73,13.61,12.79,12.93l211.26-20.48,73.18-7.09,239.41-23.21c7.07-.68,12.79-7.58,12.79-15.41v-145.86c0-7.83-5.72-13.61-12.79-12.92l-523.84,50.78ZM438.12,259.27c-14.09,1.37-25.49-10.19-25.49-25.79s11.4-29.37,25.49-30.73c14.1-1.37,25.51,10.18,25.51,25.79s-11.42,29.37-25.51,30.74ZM503.13,252.97c-14.09,1.37-25.51-10.18-25.51-25.79s11.42-29.37,25.51-30.74c14.09-1.37,25.5,10.18,25.5,25.79s-11.4,29.37-25.5,30.73ZM902.14,273.79c0,3.89-2.66,7.32-5.95,7.64l-199.42,19.33c-3.29.32-5.97-2.59-5.97-6.48v-6.29c0-3.89,2.68-7.3,5.97-7.62l199.42-19.33c3.29-.32,5.95,2.58,5.95,6.46v6.29ZM902.14,226.05c0,3.89-2.66,7.3-5.95,7.61l-199.42,19.33c-3.29.32-5.97-2.57-5.97-6.46v-6.31c0-3.89,2.68-7.3,5.97-7.62l199.42-19.33c3.29-.32,5.95,2.57,5.95,6.46v6.31ZM902.14,178.29c0,3.89-2.66,7.3-5.95,7.62l-199.42,19.33c-3.29.32-5.97-2.58-5.97-6.46v-6.3c0-3.88,2.68-7.31,5.97-7.63l199.42-19.33c3.29-.32,5.95,2.59,5.95,6.47v6.3Z"/>
          <path class="cls-3" d="M438.12,202.74c-14.09,1.37-25.49,15.13-25.49,30.73s11.4,27.16,25.49,25.79c14.1-1.37,25.51-15.13,25.51-30.74s-11.42-27.16-25.51-25.79Z"/>
          <path class="cls-3" d="M477.61,227.18c0,15.61,11.42,27.16,25.51,25.79,14.09-1.37,25.5-15.13,25.5-30.73s-11.4-27.16-25.5-25.79c-14.09,1.37-25.51,15.13-25.51,30.74Z"/>
          <path class="cls-3" d="M696.77,184.85c-3.29.32-5.97,3.74-5.97,7.63v6.3c0,3.89,2.68,6.78,5.97,6.46l199.42-19.33c3.29-.32,5.95-3.73,5.95-7.62v-6.3c0-3.88-2.66-6.79-5.95-6.47l-199.42,19.33Z"/>
          <path class="cls-3" d="M696.77,232.61c-3.29.32-5.97,3.72-5.97,7.62v6.31c0,3.89,2.68,6.78,5.97,6.46l199.42-19.33c3.29-.32,5.95-3.72,5.95-7.61v-6.31c0-3.89-2.66-6.78-5.95-6.46l-199.42,19.33Z"/>
          <path class="cls-3" d="M696.77,280.36c-3.29.32-5.97,3.73-5.97,7.62v6.29c0,3.89,2.68,6.8,5.97,6.48l199.42-19.33c3.29-.32,5.95-3.74,5.95-7.64v-6.29c0-3.89-2.66-6.78-5.95-6.46l-199.42,19.33Z"/>
        </g>
      </g>
    </g>
  </g>
</svg>