<?xml version="1.0" encoding="UTF-8"?>
<svg id="Layer_1" data-name="Layer 1" xmlns="http://www.w3.org/2000/svg" viewBox="0 0 1000 1000">
  <defs>
    <style>
      .cls-1 {
        fill: none;
      }

      .cls-1, .cls-2 {
        stroke: #1b1b1b;
        stroke-linecap: round;
        stroke-linejoin: round;
      }

      .cls-2, .cls-3 {
        fill: #fff;
      }

      .cls-2, .cls-3, .cls-4 {
        stroke-width: 10px;
      }

      .cls-3 {
        stroke: #010101;
      }

      .cls-3, .cls-4 {
        stroke-miterlimit: 10;
      }

      .cls-5 {
        fill: #b4b4b4;
      }

      .cls-4 {
        fill: #e62535;
        stroke: #1d1d1b;
      }
    </style>
  </defs>
  <g id="Layer_2" data-name="Layer 2">
    <g>
      <path class="cls-5" d="M422.74,901.69l-277.13-162.04c-12.11-7.57-12.11-24.23,0-31.8l277.13-162.04c15.14-9.09,34.83-9.09,49.97,0l275.61,162.04c12.11,7.57,12.11,24.23,0,31.8l-277.13,162.04c-15.14,9.09-33.32,9.09-48.46,0Z"/>
      <path class="cls-4" d="M542.38,321.68c102.98,112.06-28.77,163.55-81.78,37.86h-7.57c-33.32,0-63.6-13.63-86.32-36.34-133.26,60.57-224.13,233.21-224.13,268.04,0,15.14,24.23,24.23,49.97,39.37,25.74,15.14,208.98,122.66,221.1,130.24s30.29,27.26,75.72,0c33.32-19.69,151.44-86.32,228.67-133.26,27.26-16.66,43.92-22.72,43.92-36.34,1.51-40.89-87.83-213.53-219.58-269.56Z"/>
      <path class="cls-1" d="M763.47,592.75c0-51.49-130.24-293.79-310.44-289.24-180.21,4.54-310.44,246.84-310.44,289.24,0,15.14,24.23,24.23,49.97,39.37,25.74,15.14,208.98,122.66,221.1,130.24,12.11,7.57,30.29,27.26,75.72,0,33.32-19.69,151.44-86.32,228.67-133.26,28.77-16.66,45.43-22.72,45.43-36.34Z"/>
      <circle class="cls-2" cx="453.03" cy="238.39" r="146.89"/>
    </g>
    <g id="reseller">
      <polygon class="cls-3" points="682.07 511.09 682.07 490.57 624.19 524.53 624.19 545.06 682.07 511.09"/>
      <path class="cls-3" d="M457.09,484.8c-5.58,3.27-10.11,10.95-10.11,17.14v115.37c0,6.19,4.53,8.54,10.11,5.27l167.1-98.05,57.88-33.97,189.36-111.12c5.59-3.28,10.11-10.95,10.11-17.14v-115.37c0-6.19-4.52-8.55-10.11-5.27l-414.35,243.14ZM493.66,528.18c-11.14,6.54-20.16,1.82-20.16-10.52s9.02-27.65,20.16-34.18c11.15-6.54,20.18-1.83,20.18,10.51s-9.03,27.65-20.18,34.2ZM545.07,498.01c-11.15,6.54-20.18,1.83-20.18-10.51s9.03-27.65,20.18-34.2c11.15-6.54,20.17-1.82,20.17,10.52s-9.02,27.65-20.17,34.19ZM860.68,359.88c0,3.08-2.11,6.82-4.7,8.34l-157.74,92.56c-2.6,1.53-4.72.27-4.72-2.81v-4.98c0-3.07,2.12-6.81,4.72-8.34l157.74-92.56c2.6-1.52,4.7-.27,4.7,2.81v4.98ZM860.68,322.12c0,3.08-2.11,6.8-4.7,8.33l-157.74,92.56c-2.6,1.53-4.72.28-4.72-2.8v-4.99c0-3.08,2.12-6.81,4.72-8.34l157.74-92.56c2.6-1.52,4.7-.27,4.7,2.81v4.99ZM860.68,284.34c0,3.07-2.11,6.81-4.7,8.33l-157.74,92.56c-2.6,1.53-4.72.27-4.72-2.8v-4.98c0-3.07,2.12-6.82,4.72-8.34l157.74-92.56c2.6-1.52,4.7-.26,4.7,2.81v4.98Z"/>
      <path class="cls-3" d="M493.66,483.47c-11.14,6.54-20.16,21.84-20.16,34.18s9.02,17.06,20.16,10.52c11.15-6.54,20.18-21.85,20.18-34.2s-9.03-17.05-20.18-10.51Z"/>
      <path class="cls-3" d="M524.89,487.5c0,12.34,9.03,17.05,20.18,10.51,11.15-6.54,20.17-21.84,20.17-34.19s-9.02-17.06-20.17-10.52c-11.15,6.54-20.18,21.85-20.18,34.2Z"/>
      <path class="cls-3" d="M698.24,369.11c-2.6,1.53-4.72,5.27-4.72,8.34v4.98c0,3.07,2.12,4.33,4.72,2.8l157.74-92.56c2.6-1.52,4.7-5.26,4.7-8.33v-4.98c0-3.07-2.11-4.34-4.7-2.81l-157.74,92.56Z"/>
      <path class="cls-3" d="M698.24,406.88c-2.6,1.53-4.72,5.26-4.72,8.34v4.99c0,3.08,2.12,4.32,4.72,2.8l157.74-92.56c2.6-1.52,4.7-5.25,4.7-8.33v-4.99c0-3.08-2.11-4.33-4.7-2.81l-157.74,92.56Z"/>
      <path class="cls-3" d="M698.24,444.65c-2.6,1.53-4.72,5.26-4.72,8.34v4.98c0,3.08,2.12,4.34,4.72,2.81l157.74-92.56c2.6-1.52,4.7-5.26,4.7-8.34v-4.98c0-3.07-2.11-4.33-4.7-2.81l-157.74,92.56Z"/>
      <path class="cls-3" d="M682.07,511.09l-57.88,33.97-167.1,98.05c-5.58,3.27-10.11,10.95-10.11,17.14v115.37c0,6.19,4.53,8.54,10.11,5.27l167.1-98.05,57.88-33.97,189.36-111.12c5.59-3.28,10.11-10.95,10.11-17.14v-115.37c0-6.19-4.52-8.55-10.11-5.27l-189.36,111.12ZM493.66,686.49c-11.14,6.54-20.16,1.82-20.16-10.53s9.02-27.64,20.16-34.18c11.15-6.54,20.18-1.83,20.18,10.51s-9.03,27.66-20.18,34.2ZM545.07,656.32c-11.15,6.54-20.18,1.83-20.18-10.52s9.03-27.65,20.18-34.19c11.15-6.54,20.17-1.82,20.17,10.52s-9.02,27.65-20.17,34.19ZM860.68,518.18c0,3.09-2.11,6.82-4.7,8.34l-157.74,92.56c-2.6,1.53-4.72.27-4.72-2.81v-4.97c0-3.07,2.12-6.82,4.72-8.34l157.74-92.56c2.6-1.52,4.7-.26,4.7,2.81v4.97ZM860.68,480.42c0,3.08-2.11,6.8-4.7,8.33l-157.74,92.56c-2.6,1.53-4.72.28-4.72-2.8v-4.98c0-3.08,2.12-6.81,4.72-8.34l157.74-92.56c2.6-1.52,4.7-.27,4.7,2.81v4.98ZM860.68,442.65c0,3.07-2.11,6.81-4.7,8.33l-157.74,92.56c-2.6,1.53-4.72.27-4.72-2.8v-4.98c0-3.08,2.12-6.81,4.72-8.34l157.74-92.56c2.6-1.52,4.7-.27,4.7,2.81v4.98Z"/>
      <path class="cls-3" d="M493.66,641.78c-11.14,6.54-20.16,21.84-20.16,34.18s9.02,17.07,20.16,10.53c11.15-6.54,20.18-21.85,20.18-34.2s-9.03-17.05-20.18-10.51Z"/>
      <path class="cls-3" d="M524.89,645.8c0,12.35,9.03,17.06,20.18,10.52,11.15-6.54,20.17-21.84,20.17-34.19s-9.02-17.06-20.17-10.52c-11.15,6.54-20.18,21.85-20.18,34.19Z"/>
      <path class="cls-3" d="M698.24,527.42c-2.6,1.53-4.72,5.26-4.72,8.34v4.98c0,3.07,2.12,4.33,4.72,2.8l157.74-92.56c2.6-1.52,4.7-5.26,4.7-8.33v-4.98c0-3.08-2.11-4.34-4.7-2.81l-157.74,92.56Z"/>
      <path class="cls-3" d="M698.24,565.19c-2.6,1.53-4.72,5.26-4.72,8.34v4.98c0,3.08,2.12,4.33,4.72,2.8l157.74-92.56c2.6-1.52,4.7-5.25,4.7-8.33v-4.98c0-3.08-2.11-4.34-4.7-2.81l-157.74,92.56Z"/>
      <path class="cls-3" d="M698.24,602.96c-2.6,1.53-4.72,5.27-4.72,8.34v4.97c0,3.09,2.12,4.34,4.72,2.81l157.74-92.56c2.6-1.52,4.7-5.26,4.7-8.34v-4.97c0-3.07-2.11-4.34-4.7-2.81l-157.74,92.56Z"/>
    </g>
  </g>
</svg>