<?xml version="1.0" encoding="UTF-8"?>
<svg id="Layer_1" data-name="Layer 1" xmlns="http://www.w3.org/2000/svg" viewBox="0 0 1000 1000">
  <defs>
    <style>
      .cls-1 {
        fill: none;
      }

      .cls-1, .cls-2 {
        stroke: #1b1b1b;
        stroke-linecap: round;
        stroke-linejoin: round;
      }

      .cls-2, .cls-3 {
        fill: #fff;
      }

      .cls-2, .cls-3, .cls-4 {
        stroke-width: 10px;
      }

      .cls-3 {
        stroke: #010101;
      }

      .cls-3, .cls-4 {
        stroke-miterlimit: 10;
      }

      .cls-5 {
        fill: #b4b4b4;
      }

      .cls-4 {
        fill: #e4122d;
        stroke: #1d1d1b;
      }
    </style>
  </defs>
  <g id="reseller">
    <polygon class="cls-3" points="445.55 423.88 445.55 390.27 350.78 391.16 350.78 424.77 445.55 423.88"/>
    <path class="cls-3" d="M77.17,168.15c-9.14.09-16.56,8.36-16.56,18.5v188.91c0,10.14,7.42,18.28,16.56,18.19l273.6-2.59,94.78-.9,310.06-2.93c9.15-.09,16.56-8.37,16.56-18.5v-188.91c0-10.14-7.41-18.27-16.56-18.19l-678.45,6.41ZM137.04,273.74c-18.25.17-33.01-16.08-33.01-36.29s14.76-36.74,33.01-36.92c18.26-.17,33.04,16.08,33.04,36.29s-14.79,36.74-33.04,36.92ZM221.23,272.95c-18.25.17-33.04-16.08-33.04-36.29s14.79-36.74,33.04-36.92c18.25-.17,33.02,16.08,33.02,36.29s-14.77,36.74-33.02,36.92ZM738.01,345.13c0,5.04-3.45,9.17-7.7,9.21l-258.28,2.44c-4.26.04-7.73-4.03-7.73-9.07v-8.15c0-5.03,3.47-9.15,7.73-9.19l258.28-2.44c4.26-.04,7.7,4.01,7.7,9.05v8.15ZM738.01,283.3c0,5.04-3.45,9.15-7.7,9.19l-258.28,2.44c-4.26.04-7.73-4-7.73-9.04v-8.17c0-5.04,3.47-9.15,7.73-9.19l258.28-2.44c4.26-.04,7.7,4,7.7,9.04v8.17ZM738.01,221.45c0,5.03-3.45,9.15-7.7,9.19l-258.28,2.44c-4.26.04-7.73-4.01-7.73-9.05v-8.16c0-5.03,3.47-9.16,7.73-9.2l258.28-2.44c4.26-.04,7.7,4.03,7.7,9.06v8.16Z"/>
    <path class="cls-3" d="M137.04,200.54c-18.25.17-33.01,16.7-33.01,36.92s14.76,36.46,33.01,36.29c18.26-.17,33.04-16.7,33.04-36.92s-14.79-36.46-33.04-36.29Z"/>
    <path class="cls-3" d="M188.19,236.66c0,20.21,14.79,36.46,33.04,36.29,18.25-.17,33.02-16.7,33.02-36.92s-14.77-36.46-33.02-36.29c-18.25.17-33.04,16.7-33.04,36.92Z"/>
    <path class="cls-3" d="M472.02,206.67c-4.26.04-7.73,4.17-7.73,9.2v8.16c0,5.03,3.47,9.09,7.73,9.05l258.28-2.44c4.26-.04,7.7-4.16,7.7-9.19v-8.16c0-5.03-3.45-9.1-7.7-9.06l-258.28,2.44Z"/>
    <path class="cls-3" d="M472.02,268.53c-4.26.04-7.73,4.14-7.73,9.19v8.17c0,5.04,3.47,9.08,7.73,9.04l258.28-2.44c4.26-.04,7.7-4.15,7.7-9.19v-8.17c0-5.04-3.45-9.08-7.7-9.04l-258.28,2.44Z"/>
    <path class="cls-3" d="M472.02,330.37c-4.26.04-7.73,4.16-7.73,9.19v8.15c0,5.04,3.47,9.11,7.73,9.07l258.28-2.44c4.26-.04,7.7-4.17,7.7-9.21v-8.15c0-5.03-3.45-9.09-7.7-9.05l-258.28,2.44Z"/>
    <path class="cls-3" d="M445.55,423.88l-94.78.9-273.6,2.59c-9.14.09-16.56,8.36-16.56,18.5v188.91c0,10.14,7.42,18.27,16.56,18.19l273.6-2.59,94.78-.9,310.06-2.93c9.15-.09,16.56-8.36,16.56-18.5v-188.91c0-10.14-7.41-18.27-16.56-18.19l-310.06,2.93ZM137.04,532.95c-18.25.17-33.01-16.08-33.01-36.3s14.76-36.73,33.01-36.91c18.26-.17,33.04,16.08,33.04,36.28s-14.79,36.75-33.04,36.92ZM221.23,532.16c-18.25.17-33.04-16.07-33.04-36.3s14.79-36.73,33.04-36.91c18.25-.17,33.02,16.08,33.02,36.28s-14.77,36.75-33.02,36.92ZM738.01,604.33c0,5.05-3.45,9.17-7.7,9.21l-258.28,2.44c-4.26.04-7.73-4.02-7.73-9.07v-8.14c0-5.03,3.47-9.16,7.73-9.2l258.28-2.44c4.26-.04,7.7,4.03,7.7,9.06v8.14ZM738.01,542.5c0,5.05-3.45,9.15-7.7,9.19l-258.28,2.44c-4.26.04-7.73-4-7.73-9.05v-8.16c0-5.04,3.47-9.16,7.73-9.2l258.28-2.44c4.26-.04,7.7,4.01,7.7,9.05v8.16ZM738.01,480.65c0,5.03-3.45,9.16-7.7,9.2l-258.28,2.44c-4.26.04-7.73-4.02-7.73-9.05v-8.15c0-5.04,3.47-9.16,7.73-9.2l258.28-2.44c4.26-.04,7.7,4.01,7.7,9.05v8.15Z"/>
    <path class="cls-3" d="M137.04,459.75c-18.25.17-33.01,16.7-33.01,36.91s14.76,36.47,33.01,36.3c18.26-.17,33.04-16.7,33.04-36.92s-14.79-36.46-33.04-36.28Z"/>
    <path class="cls-3" d="M188.19,495.86c0,20.22,14.79,36.47,33.04,36.3,18.25-.17,33.02-16.7,33.02-36.92s-14.77-36.46-33.02-36.28c-18.25.17-33.04,16.7-33.04,36.91Z"/>
    <path class="cls-3" d="M472.02,465.89c-4.26.04-7.73,4.16-7.73,9.2v8.15c0,5.03,3.47,9.09,7.73,9.05l258.28-2.44c4.26-.04,7.7-4.16,7.7-9.2v-8.15c0-5.04-3.45-9.09-7.7-9.05l-258.28,2.44Z"/>
    <path class="cls-3" d="M472.02,527.73c-4.26.04-7.73,4.16-7.73,9.2v8.16c0,5.05,3.47,9.09,7.73,9.05l258.28-2.44c4.26-.04,7.7-4.14,7.7-9.19v-8.16c0-5.04-3.45-9.09-7.7-9.05l-258.28,2.44Z"/>
    <path class="cls-3" d="M472.02,589.58c-4.26.04-7.73,4.17-7.73,9.2v8.14c0,5.05,3.47,9.11,7.73,9.07l258.28-2.44c4.26-.04,7.7-4.16,7.7-9.21v-8.14c0-5.03-3.45-9.1-7.7-9.06l-258.28,2.44Z"/>
    <g>
      <path class="cls-5" d="M739.22,834.26l-162.8-95.19c-7.12-4.45-7.12-14.23,0-18.68l162.8-95.19c8.9-5.34,20.46-5.34,29.36,0l161.91,95.19c7.12,4.45,7.12,14.23,0,18.68l-162.8,95.19c-8.9,5.34-19.57,5.34-28.47,0Z"/>
      <path class="cls-4" d="M809.5,493.53c60.5,65.83-16.9,96.08-48.04,22.24h-4.45c-19.57,0-37.36-8.01-50.71-21.35-78.29,35.59-131.67,137-131.67,157.47,0,8.9,14.23,14.23,29.36,23.13,15.12,8.9,122.77,72.06,129.89,76.51s17.79,16.01,44.48,0c19.57-11.57,88.96-50.71,134.33-78.29,16.01-9.79,25.8-13.34,25.8-21.35.89-24.02-51.6-125.44-129-158.35Z"/>
      <path class="cls-1" d="M939.39,652.77c0-30.25-76.51-172.59-182.37-169.92-105.87,2.67-182.37,145.01-182.37,169.92,0,8.9,14.23,14.23,29.36,23.13,15.12,8.9,122.77,72.06,129.89,76.51,7.12,4.45,17.79,16.01,44.48,0,19.57-11.57,88.96-50.71,134.33-78.29,16.9-9.79,26.69-13.34,26.69-21.35Z"/>
      <circle class="cls-2" cx="757.01" cy="444.6" r="86.29"/>
    </g>
  </g>
</svg>