<?xml version="1.0" encoding="UTF-8"?>
<svg id="Layer_1" data-name="Layer 1" xmlns="http://www.w3.org/2000/svg" viewBox="0 0 1000 1000">
  <defs>
    <style>
      .cls-1 {
        fill: #1b1b1b;
      }

      .cls-2, .cls-3, .cls-4 {
        stroke: #1b1b1b;
        stroke-linecap: round;
        stroke-linejoin: round;
        stroke-width: 10px;
      }

      .cls-2, .cls-5 {
        fill: #fff;
      }

      .cls-6 {
        fill: #b4b4b4;
      }

      .cls-3 {
        fill: none;
      }

      .cls-4 {
        fill: #e4122d;
      }

      .cls-5 {
        font-family: Righteous-Regular, Righteous;
        font-size: 176.01px;
      }
    </style>
  </defs>
  <g id="SSL">
    <path class="cls-6" d="M351.82,831.04c2.69-4.04,6.74-9.43,10.78-16.16,39.06-53.88,141.44-199.36,173.77-315.21,24.25-84.86,41.76-222.26,48.49-312.52-1.35,1.35-4.04,1.35-5.39,1.35-45.8,13.47-78.13-18.86-78.13-75.44,0-6.74,0-14.82,1.35-21.55-53.88,17.51-115.85,43.11-149.52,60.62-35.02,18.86-102.38,63.31-157.61,103.72,1.35,6.74,1.35,14.82,1.35,22.9,0,56.58-32.33,122.58-76.78,154.91,6.74,99.68,26.94,212.84,48.49,265.37,32.33,79.48,133.36,115.85,172.42,129.32,4.04,1.35,8.08,2.69,10.78,2.69Z"/>
    <g>
      <path class="cls-2" d="M706.1,257.55q0-1.35,0,0,0-1.35,0,0h0c-2.69,0-4.04,1.35-5.39,1.35-13.47,4.04,20.21,32.33,10.78,28.29l21.55-57.92-99.68-59.27h0c-49.84,16.16-105.07,39.06-134.71,55.23-32.33,17.51-92.95,57.92-144.14,95.64,1.35,6.74,1.35,13.47,1.35,20.21,0,52.54-29.64,111.81-70.05,141.44,5.39,90.25,24.25,193.98,44.45,242.47,29.64,72.74,121.24,134.71,156.26,148.18,2.69,1.35,5.39,0,8.08,1.35l-8.08-1.35,109.11,35.02-33.68-59.27c40.41-57.92,121.24-177.81,149.52-274.8,1.35-4.04,1.35-8.08,2.69-10.78l5.39,2.69,90.25-247.86-103.72-60.62Z"/>
      <path class="cls-4" d="M595.96,908.5c2.69-4.04,6.74-8.08,10.78-14.82,35.02-49.84,129.32-181.85,158.95-288.27,21.55-76.78,39.06-203.41,44.45-286.92-1.35,0-4.04,1.35-5.39,1.35-40.41,10.78-70.05-18.86-70.05-70.05,0-6.74,0-13.47,1.35-20.21-49.84,16.16-106.42,39.06-136.05,55.23-32.33,17.51-92.95,57.92-144.14,95.64,1.35,6.74,1.35,13.47,1.35,20.21,0,52.54-29.64,111.81-70.05,141.44,5.39,90.25,24.25,193.98,44.45,242.47,29.64,72.74,122.58,106.42,157.61,118.54,1.35,4.04,4.04,5.39,6.74,5.39Z"/>
      <path class="cls-2" d="M351.82,324.54l99.68,60.62s6.74,48.49-16.16,94.29c-35.02,67.35-52.54,67.35-52.54,67.35l-99.68-60.62s26.94-14.82,52.54-66.01c25.59-55.23,16.16-95.64,16.16-95.64Z"/>
    </g>
    <g>
      <polyline class="cls-3" points="879.87 769.07 679.16 645.14 545.8 720.58"/>
      <polygon class="cls-1" points="483.84 756.95 575.44 646.49 575.44 746.17 483.84 756.95"/>
    </g>
    <text class="cls-5" transform="translate(444.09 654.72) rotate(-29.54) scale(1.15 .87) skewX(-23.22)"><tspan x="0" y="0">SSL</tspan></text>
  </g>
</svg>