<?xml version="1.0" encoding="UTF-8"?>
<svg xmlns="http://www.w3.org/2000/svg" viewBox="0 0 1000 1000">
  <defs>
    <style>
      .cls-1, .cls-2 {
        fill: #b5b4b4;
      }

      .cls-3 {
        mix-blend-mode: lighten;
        opacity: .8;
      }

      .cls-3, .cls-4, .cls-5 {
        fill: #fff;
      }

      .cls-4 {
        stroke: #010101;
        stroke-width: 10px;
      }

      .cls-4, .cls-2 {
        stroke-miterlimit: 10;
      }

      .cls-2 {
        stroke: #b5b4b4;
      }

      .cls-6 {
        isolation: isolate;
      }

      .cls-7 {
        fill: #e4122d;
      }
    </style>
  </defs>
  <g class="cls-6">
    <g id="Layer_1" data-name="Layer 1">
      <g id="sanal">
        <g>
          <g>
            <polygon class="cls-4" points="504.71 253.36 364.21 172.25 504.7 91.13 645.21 172.25 504.71 253.36"/>
            <path class="cls-2" d="M503.71,671.82c-.27,0-.53-.07-.77-.21l-140.93-81.37c-.48-.27-.77-.78-.77-1.33s.29-1.06.77-1.33l140.93-81.36c.48-.28,1.06-.28,1.54,0l140.93,81.37c.48.27.77.78.77,1.33s-.29,1.06-.77,1.33l-140.93,81.36c-.24.14-.51.21-.77.21ZM365.85,588.92l137.86,79.59,137.85-79.59-137.86-79.59-137.85,79.59Z"/>
            <polygon class="cls-2" points="503.71 641.38 412.84 588.92 503.7 536.46 594.57 588.92 503.71 641.38"/>
            <polygon class="cls-4" points="500.21 564.57 359.28 483.2 359.28 180.55 500.21 261.91 500.21 564.57"/>
            <polygon class="cls-4" points="650.44 483.2 509.51 564.57 509.51 261.91 650.44 180.55 650.44 483.2"/>
          </g>
          <g>
            <g>
              <polygon points="635.63 230.77 523.26 295.65 523.26 285.83 635.63 220.96 635.63 230.77"/>
              <polygon points="631.78 223.18 631.78 228.98 523.26 291.63 523.26 295.65 635.63 230.77 635.63 220.96 631.78 223.18"/>
            </g>
            <g>
              <polygon points="635.63 265.13 523.26 330.01 523.26 320.19 635.63 255.32 635.63 265.13"/>
              <polygon points="631.78 257.54 631.78 263.33 523.26 325.99 523.26 330.01 635.63 265.13 635.63 255.32 631.78 257.54"/>
            </g>
            <g>
              <polygon points="635.63 299.49 523.26 364.37 523.26 354.55 635.63 289.67 635.63 299.49"/>
              <polygon points="631.78 291.9 631.78 297.69 523.26 360.35 523.26 364.37 635.63 299.49 635.63 289.67 631.78 291.9"/>
            </g>
            <g>
              <polygon points="635.63 333.85 523.26 398.72 523.26 388.91 635.63 324.03 635.63 333.85"/>
              <polygon points="631.78 326.25 631.78 332.05 523.26 394.71 523.26 398.72 635.63 333.85 635.63 324.03 631.78 326.25"/>
            </g>
            <g>
              <polygon points="635.63 368.21 523.26 433.08 523.26 423.27 635.63 358.39 635.63 368.21"/>
              <polygon points="631.78 360.61 631.78 366.41 523.26 429.07 523.26 433.08 635.63 368.21 635.63 358.39 631.78 360.61"/>
            </g>
            <g>
              <polygon points="635.63 402.56 523.26 467.44 523.26 457.63 635.63 392.75 635.63 402.56"/>
              <polygon points="631.78 394.97 631.78 400.77 523.26 463.42 523.26 467.44 635.63 402.56 635.63 392.75 631.78 394.97"/>
            </g>
            <g>
              <polygon points="635.63 436.92 523.26 501.8 523.26 491.98 635.63 427.11 635.63 436.92"/>
              <polygon points="631.78 429.33 631.78 435.13 523.26 497.78 523.26 501.8 635.63 436.92 635.63 427.11 631.78 429.33"/>
            </g>
            <g>
              <polygon points="635.63 471.28 523.26 536.16 523.26 526.34 635.63 461.47 635.63 471.28"/>
              <polygon points="631.78 463.69 631.78 469.49 523.26 532.14 523.26 536.16 635.63 471.28 635.63 461.47 631.78 463.69"/>
            </g>
          </g>
          <g>
            <g>
              <polygon points="372.68 229.77 485.05 294.65 485.05 284.83 372.68 219.96 372.68 229.77"/>
              <polygon points="376.52 222.18 376.52 227.98 485.05 290.63 485.05 294.65 372.68 229.77 372.68 219.96 376.52 222.18"/>
            </g>
            <g>
              <polygon points="372.68 264.13 485.05 329.01 485.05 319.19 372.68 254.32 372.68 264.13"/>
              <polygon points="376.52 256.54 376.52 262.33 485.05 324.99 485.05 329.01 372.68 264.13 372.68 254.32 376.52 256.54"/>
            </g>
            <g>
              <polygon points="372.68 298.49 485.05 363.37 485.05 353.55 372.68 288.67 372.68 298.49"/>
              <polygon points="376.52 290.9 376.52 296.69 485.05 359.35 485.05 363.37 372.68 298.49 372.68 288.67 376.52 290.9"/>
            </g>
            <g>
              <polygon points="372.68 332.85 485.05 397.72 485.05 387.91 372.68 323.03 372.68 332.85"/>
              <polygon points="376.52 325.25 376.52 331.05 485.05 393.71 485.05 397.72 372.68 332.85 372.68 323.03 376.52 325.25"/>
            </g>
            <g>
              <polygon points="372.68 367.21 485.05 432.08 485.05 422.27 372.68 357.39 372.68 367.21"/>
              <polygon points="376.52 359.61 376.52 365.41 485.05 428.07 485.05 432.08 372.68 367.21 372.68 357.39 376.52 359.61"/>
            </g>
            <g>
              <polygon points="372.68 401.56 485.05 466.44 485.05 456.63 372.68 391.75 372.68 401.56"/>
              <polygon points="376.52 393.97 376.52 399.77 485.05 462.42 485.05 466.44 372.68 401.56 372.68 391.75 376.52 393.97"/>
            </g>
            <g>
              <polygon points="372.68 435.92 485.05 500.8 485.05 490.98 372.68 426.11 372.68 435.92"/>
              <polygon points="376.52 428.33 376.52 434.13 485.05 496.78 485.05 500.8 372.68 435.92 372.68 426.11 376.52 428.33"/>
            </g>
            <g>
              <polygon points="372.68 470.28 485.05 535.16 485.05 525.34 372.68 460.47 372.68 470.28"/>
              <polygon points="376.52 462.69 376.52 468.49 485.05 531.14 485.05 535.16 372.68 470.28 372.68 460.47 376.52 462.69"/>
            </g>
          </g>
        </g>
        <g>
          <g>
            <polygon class="cls-7" points="707.54 384.92 566.61 303.56 707.53 222.19 848.46 303.56 707.54 384.92"/>
            <path class="cls-1" d="M707.54,787.84c-.27,0-.53-.07-.77-.21l-140.93-81.37c-.48-.27-.77-.78-.77-1.33s.29-1.06.77-1.33l140.93-81.36c.48-.28,1.06-.28,1.54,0l140.93,81.37c.48.27.77.78.77,1.33s-.29,1.06-.77,1.33l-140.93,81.36c-.24.14-.51.21-.77.21ZM569.68,704.93l137.85,79.59,137.85-79.59-137.85-79.59-137.85,79.59Z"/>
            <polygon class="cls-1" points="707.54 757.39 616.67 704.93 707.53 652.47 798.39 704.93 707.54 757.39"/>
            <polygon class="cls-3" points="572.28 303.56 710.37 223.83 707.53 222.19 566.61 303.56 707.54 384.92 710.37 383.29 572.28 303.56"/>
            <polygon class="cls-7" points="707.54 687.58 566.61 606.22 566.61 303.56 707.54 384.92 707.54 687.58"/>
            <polygon class="cls-7" points="848.47 606.22 707.54 687.58 707.54 384.92 848.47 303.56 848.47 606.22"/>
          </g>
          <g>
            <g>
              <polygon class="cls-5" points="835.46 347.78 723.09 412.66 723.09 402.85 835.46 337.97 835.46 347.78"/>
              <polygon class="cls-5" points="831.61 340.19 831.61 345.99 723.09 408.64 723.09 412.66 835.46 347.78 835.46 337.97 831.61 340.19"/>
            </g>
            <g>
              <polygon class="cls-5" points="835.46 382.14 723.09 447.02 723.09 437.2 835.46 372.33 835.46 382.14"/>
              <polygon class="cls-5" points="831.61 374.55 831.61 380.35 723.09 443 723.09 447.02 835.46 382.14 835.46 372.33 831.61 374.55"/>
            </g>
            <g>
              <polygon class="cls-5" points="835.46 416.5 723.09 481.38 723.09 471.56 835.46 406.69 835.46 416.5"/>
              <polygon class="cls-5" points="831.61 408.91 831.61 414.71 723.09 477.36 723.09 481.38 835.46 416.5 835.46 406.69 831.61 408.91"/>
            </g>
            <g>
              <polygon class="cls-5" points="835.46 450.86 723.09 515.74 723.09 505.92 835.46 441.04 835.46 450.86"/>
              <polygon class="cls-5" points="831.61 443.27 831.61 449.06 723.09 511.72 723.09 515.74 835.46 450.86 835.46 441.04 831.61 443.27"/>
            </g>
            <g>
              <polygon class="cls-5" points="835.46 485.22 723.09 550.09 723.09 540.28 835.46 475.4 835.46 485.22"/>
              <polygon class="cls-5" points="831.61 477.62 831.61 483.42 723.09 546.08 723.09 550.09 835.46 485.22 835.46 475.4 831.61 477.62"/>
            </g>
            <g>
              <polygon class="cls-5" points="835.46 519.58 723.09 584.45 723.09 574.64 835.46 509.76 835.46 519.58"/>
              <polygon class="cls-5" points="831.61 511.98 831.61 517.78 723.09 580.44 723.09 584.45 835.46 519.58 835.46 509.76 831.61 511.98"/>
            </g>
            <g>
              <polygon class="cls-5" points="835.46 553.93 723.09 618.81 723.09 609 835.46 544.12 835.46 553.93"/>
              <polygon class="cls-5" points="831.61 546.34 831.61 552.14 723.09 614.8 723.09 618.81 835.46 553.93 835.46 544.12 831.61 546.34"/>
            </g>
            <g>
              <polygon class="cls-5" points="835.46 588.29 723.09 653.17 723.09 643.36 835.46 578.48 835.46 588.29"/>
              <polygon class="cls-5" points="831.61 580.7 831.61 586.5 723.09 649.15 723.09 653.17 835.46 588.29 835.46 578.48 831.61 580.7"/>
            </g>
          </g>
          <g>
            <g>
              <polygon class="cls-5" points="579.51 347.78 691.87 412.66 691.87 402.85 579.51 337.97 579.51 347.78"/>
              <polygon class="cls-5" points="583.35 340.19 583.35 345.99 691.87 408.64 691.87 412.66 579.5 347.78 579.5 337.97 583.35 340.19"/>
            </g>
            <g>
              <polygon class="cls-5" points="579.51 382.14 691.87 447.02 691.87 437.2 579.51 372.33 579.51 382.14"/>
              <polygon class="cls-5" points="583.35 374.55 583.35 380.35 691.87 443 691.87 447.02 579.5 382.14 579.5 372.33 583.35 374.55"/>
            </g>
            <g>
              <polygon class="cls-5" points="579.51 416.5 691.87 481.38 691.87 471.56 579.51 406.69 579.51 416.5"/>
              <polygon class="cls-5" points="583.35 408.91 583.35 414.71 691.87 477.36 691.87 481.38 579.5 416.5 579.5 406.69 583.35 408.91"/>
            </g>
            <g>
              <polygon class="cls-5" points="579.51 450.86 691.87 515.74 691.87 505.92 579.51 441.04 579.51 450.86"/>
              <polygon class="cls-5" points="583.35 443.27 583.35 449.06 691.87 511.72 691.87 515.74 579.5 450.86 579.5 441.04 583.35 443.27"/>
            </g>
            <g>
              <polygon class="cls-5" points="579.51 485.22 691.87 550.09 691.87 540.28 579.51 475.4 579.51 485.22"/>
              <polygon class="cls-5" points="583.35 477.62 583.35 483.42 691.87 546.08 691.87 550.09 579.5 485.22 579.5 475.4 583.35 477.62"/>
            </g>
            <g>
              <polygon class="cls-5" points="579.51 519.58 691.87 584.45 691.87 574.64 579.51 509.76 579.51 519.58"/>
              <polygon class="cls-5" points="583.35 511.98 583.35 517.78 691.87 580.44 691.87 584.45 579.5 519.58 579.5 509.76 583.35 511.98"/>
            </g>
            <g>
              <polygon class="cls-5" points="579.51 553.93 691.87 618.81 691.87 609 579.51 544.12 579.51 553.93"/>
              <polygon class="cls-5" points="583.35 546.34 583.35 552.14 691.87 614.8 691.87 618.81 579.5 553.93 579.5 544.12 583.35 546.34"/>
            </g>
            <g>
              <polygon class="cls-5" points="579.51 588.29 691.87 653.17 691.87 643.36 579.51 578.48 579.51 588.29"/>
              <polygon class="cls-5" points="583.35 580.7 583.35 586.5 691.87 649.15 691.87 653.17 579.5 588.29 579.5 578.48 583.35 580.7"/>
            </g>
          </g>
        </g>
        <g>
          <g>
            <polygon class="cls-7" points="292.47 386.81 151.54 305.44 292.47 224.08 433.4 305.44 292.47 386.81"/>
            <path class="cls-1" d="M292.47,789.72c-.27,0-.53-.07-.77-.21l-140.93-81.37c-.48-.27-.77-.78-.77-1.33s.29-1.06.77-1.33l140.93-81.36c.48-.28,1.06-.28,1.54,0l140.93,81.37c.48.27.77.78.77,1.33s-.29,1.06-.77,1.33l-140.93,81.36c-.24.14-.51.21-.77.21ZM154.62,706.81l137.85,79.59,137.85-79.59-137.85-79.59-137.85,79.59Z"/>
            <polygon class="cls-1" points="292.47 759.27 201.61 706.82 292.47 654.36 383.33 706.82 292.47 759.27"/>
            <polygon class="cls-3" points="157.22 305.44 295.3 225.72 292.47 224.08 151.54 305.44 292.47 386.81 295.31 385.17 157.22 305.44"/>
            <polygon class="cls-7" points="292.47 689.46 151.54 608.1 151.54 305.44 292.47 386.81 292.47 689.46"/>
            <polygon class="cls-7" points="433.4 608.1 292.47 689.46 292.47 386.81 433.4 305.44 433.4 608.1"/>
          </g>
          <g>
            <g>
              <polygon class="cls-5" points="420.39 349.67 308.02 414.54 308.02 404.73 420.39 339.85 420.39 349.67"/>
              <polygon class="cls-5" points="416.55 342.07 416.55 347.87 308.02 410.53 308.02 414.54 420.39 349.67 420.39 339.85 416.55 342.07"/>
            </g>
            <g>
              <polygon class="cls-5" points="420.39 384.03 308.02 448.9 308.02 439.09 420.39 374.21 420.39 384.03"/>
              <polygon class="cls-5" points="416.55 376.43 416.55 382.23 308.02 444.89 308.02 448.9 420.39 384.03 420.39 374.21 416.55 376.43"/>
            </g>
            <g>
              <polygon class="cls-5" points="420.39 418.38 308.02 483.26 308.02 473.45 420.39 408.57 420.39 418.38"/>
              <polygon class="cls-5" points="416.55 410.79 416.55 416.59 308.02 479.24 308.02 483.26 420.39 418.38 420.39 408.57 416.55 410.79"/>
            </g>
            <g>
              <polygon class="cls-5" points="420.39 452.74 308.02 517.62 308.02 507.8 420.39 442.93 420.39 452.74"/>
              <polygon class="cls-5" points="416.55 445.15 416.55 450.95 308.02 513.6 308.02 517.62 420.39 452.74 420.39 442.93 416.55 445.15"/>
            </g>
            <g>
              <polygon class="cls-5" points="420.39 487.1 308.02 551.98 308.02 542.16 420.39 477.29 420.39 487.1"/>
              <polygon class="cls-5" points="416.55 479.51 416.55 485.31 308.02 547.96 308.02 551.98 420.39 487.1 420.39 477.29 416.55 479.51"/>
            </g>
            <g>
              <polygon class="cls-5" points="420.39 521.46 308.02 586.34 308.02 576.52 420.39 511.64 420.39 521.46"/>
              <polygon class="cls-5" points="416.55 513.87 416.55 519.66 308.02 582.32 308.02 586.34 420.39 521.46 420.39 511.64 416.55 513.87"/>
            </g>
            <g>
              <polygon class="cls-5" points="420.39 555.82 308.02 620.69 308.02 610.88 420.39 546 420.39 555.82"/>
              <polygon class="cls-5" points="416.55 548.22 416.55 554.02 308.02 616.68 308.02 620.69 420.39 555.82 420.39 546 416.55 548.22"/>
            </g>
            <g>
              <polygon class="cls-5" points="420.39 590.18 308.02 655.05 308.02 645.24 420.39 580.36 420.39 590.18"/>
              <polygon class="cls-5" points="416.55 582.58 416.55 588.38 308.02 651.04 308.02 655.05 420.39 590.18 420.39 580.36 416.55 582.58"/>
            </g>
          </g>
          <g>
            <g>
              <polygon class="cls-5" points="164.44 349.67 276.81 414.54 276.81 404.73 164.44 339.85 164.44 349.67"/>
              <polygon class="cls-5" points="168.29 342.07 168.29 347.87 276.81 410.53 276.81 414.54 164.44 349.67 164.44 339.85 168.29 342.07"/>
            </g>
            <g>
              <polygon class="cls-5" points="164.44 384.03 276.81 448.9 276.81 439.09 164.44 374.21 164.44 384.03"/>
              <polygon class="cls-5" points="168.29 376.43 168.29 382.23 276.81 444.89 276.81 448.9 164.44 384.03 164.44 374.21 168.29 376.43"/>
            </g>
            <g>
              <polygon class="cls-5" points="164.44 418.38 276.81 483.26 276.81 473.45 164.44 408.57 164.44 418.38"/>
              <polygon class="cls-5" points="168.29 410.79 168.29 416.59 276.81 479.24 276.81 483.26 164.44 418.38 164.44 408.57 168.29 410.79"/>
            </g>
            <g>
              <polygon class="cls-5" points="164.44 452.74 276.81 517.62 276.81 507.8 164.44 442.93 164.44 452.74"/>
              <polygon class="cls-5" points="168.29 445.15 168.29 450.95 276.81 513.6 276.81 517.62 164.44 452.74 164.44 442.93 168.29 445.15"/>
            </g>
            <g>
              <polygon class="cls-5" points="164.44 487.1 276.81 551.98 276.81 542.16 164.44 477.29 164.44 487.1"/>
              <polygon class="cls-5" points="168.29 479.51 168.29 485.31 276.81 547.96 276.81 551.98 164.44 487.1 164.44 477.29 168.29 479.51"/>
            </g>
            <g>
              <polygon class="cls-5" points="164.44 521.46 276.81 586.34 276.81 576.52 164.44 511.64 164.44 521.46"/>
              <polygon class="cls-5" points="168.29 513.87 168.29 519.66 276.81 582.32 276.81 586.34 164.44 521.46 164.44 511.64 168.29 513.87"/>
            </g>
            <g>
              <polygon class="cls-5" points="164.44 555.82 276.81 620.69 276.81 610.88 164.44 546 164.44 555.82"/>
              <polygon class="cls-5" points="168.29 548.22 168.29 554.02 276.81 616.68 276.81 620.69 164.44 555.82 164.44 546 168.29 548.22"/>
            </g>
            <g>
              <polygon class="cls-5" points="164.44 590.18 276.81 655.05 276.81 645.24 164.44 580.36 164.44 590.18"/>
              <polygon class="cls-5" points="168.29 582.58 168.29 588.38 276.81 651.04 276.81 655.05 164.44 590.18 164.44 580.36 168.29 582.58"/>
            </g>
          </g>
        </g>
        <g>
          <g>
            <polygon class="cls-4" points="501 490.41 360.5 409.29 501 328.18 641.5 409.29 501 490.41"/>
            <path class="cls-2" d="M500,908.87c-.27,0-.53-.07-.77-.21l-140.93-81.37c-.48-.27-.77-.78-.77-1.33s.29-1.06.77-1.33l140.93-81.36c.48-.28,1.06-.28,1.54,0l140.93,81.37c.48.27.77.78.77,1.33s-.29,1.06-.77,1.33l-140.93,81.36c-.24.14-.51.21-.77.21ZM362.15,825.97l137.86,79.59,137.85-79.59-137.86-79.59-137.85,79.59Z"/>
            <polygon class="cls-2" points="500 878.43 409.14 825.97 500 773.51 590.86 825.97 500 878.43"/>
            <polygon class="cls-4" points="496.5 801.62 355.57 720.25 355.57 417.59 496.5 498.96 496.5 801.62"/>
            <polygon class="cls-4" points="646.73 720.25 505.8 801.62 505.8 498.96 646.73 417.59 646.73 720.25"/>
          </g>
          <g>
            <g>
              <polygon points="631.93 467.82 519.56 532.69 519.56 522.88 631.93 458 631.93 467.82"/>
              <polygon points="628.08 460.22 628.08 466.02 519.56 528.68 519.56 532.69 631.93 467.82 631.93 458 628.08 460.22"/>
            </g>
            <g>
              <polygon points="631.93 502.18 519.56 567.05 519.56 557.24 631.93 492.36 631.93 502.18"/>
              <polygon points="628.08 494.58 628.08 500.38 519.56 563.04 519.56 567.05 631.93 502.18 631.93 492.36 628.08 494.58"/>
            </g>
            <g>
              <polygon points="631.93 536.54 519.56 601.41 519.56 591.6 631.93 526.72 631.93 536.54"/>
              <polygon points="628.08 528.94 628.08 534.74 519.56 597.4 519.56 601.41 631.93 536.54 631.93 526.72 628.08 528.94"/>
            </g>
            <g>
              <polygon points="631.93 570.89 519.56 635.77 519.56 625.96 631.93 561.08 631.93 570.89"/>
              <polygon points="628.08 563.3 628.08 569.1 519.56 631.75 519.56 635.77 631.93 570.89 631.93 561.08 628.08 563.3"/>
            </g>
            <g>
              <polygon points="631.93 605.25 519.56 670.13 519.56 660.31 631.93 595.44 631.93 605.25"/>
              <polygon points="628.08 597.66 628.08 603.46 519.56 666.11 519.56 670.13 631.93 605.25 631.93 595.44 628.08 597.66"/>
            </g>
            <g>
              <polygon points="631.93 639.61 519.56 704.49 519.56 694.67 631.93 629.8 631.93 639.61"/>
              <polygon points="628.08 632.02 628.08 637.82 519.56 700.47 519.56 704.49 631.93 639.61 631.93 629.8 628.08 632.02"/>
            </g>
            <g>
              <polygon points="631.93 673.97 519.56 738.85 519.56 729.03 631.93 664.15 631.93 673.97"/>
              <polygon points="628.08 666.38 628.08 672.17 519.56 734.83 519.56 738.85 631.93 673.97 631.93 664.15 628.08 666.38"/>
            </g>
            <g>
              <polygon points="631.93 708.33 519.56 773.2 519.56 763.39 631.93 698.51 631.93 708.33"/>
              <polygon points="628.08 700.73 628.08 706.53 519.56 769.19 519.56 773.2 631.93 708.33 631.93 698.51 628.08 700.73"/>
            </g>
          </g>
          <g>
            <g>
              <polygon points="368.97 466.82 481.34 531.69 481.34 521.88 368.97 457 368.97 466.82"/>
              <polygon points="372.82 459.22 372.82 465.02 481.34 527.68 481.34 531.69 368.97 466.82 368.97 457 372.82 459.22"/>
            </g>
            <g>
              <polygon points="368.97 501.18 481.34 566.05 481.34 556.24 368.97 491.36 368.97 501.18"/>
              <polygon points="372.82 493.58 372.82 499.38 481.34 562.04 481.34 566.05 368.97 501.18 368.97 491.36 372.82 493.58"/>
            </g>
            <g>
              <polygon points="368.97 535.54 481.34 600.41 481.34 590.6 368.97 525.72 368.97 535.54"/>
              <polygon points="372.82 527.94 372.82 533.74 481.34 596.4 481.34 600.41 368.97 535.54 368.97 525.72 372.82 527.94"/>
            </g>
            <g>
              <polygon points="368.97 569.89 481.34 634.77 481.34 624.96 368.97 560.08 368.97 569.89"/>
              <polygon points="372.82 562.3 372.82 568.1 481.34 630.75 481.34 634.77 368.97 569.89 368.97 560.08 372.82 562.3"/>
            </g>
            <g>
              <polygon points="368.97 604.25 481.34 669.13 481.34 659.31 368.97 594.44 368.97 604.25"/>
              <polygon points="372.82 596.66 372.82 602.46 481.34 665.11 481.34 669.13 368.97 604.25 368.97 594.44 372.82 596.66"/>
            </g>
            <g>
              <polygon points="368.97 638.61 481.34 703.49 481.34 693.67 368.97 628.8 368.97 638.61"/>
              <polygon points="372.82 631.02 372.82 636.82 481.34 699.47 481.34 703.49 368.97 638.61 368.97 628.8 372.82 631.02"/>
            </g>
            <g>
              <polygon points="368.97 672.97 481.34 737.85 481.34 728.03 368.97 663.15 368.97 672.97"/>
              <polygon points="372.82 665.38 372.82 671.17 481.34 733.83 481.34 737.85 368.97 672.97 368.97 663.15 372.82 665.38"/>
            </g>
            <g>
              <polygon points="368.97 707.33 481.34 772.2 481.34 762.39 368.97 697.51 368.97 707.33"/>
              <polygon points="372.82 699.73 372.82 705.53 481.34 768.19 481.34 772.2 368.97 707.33 368.97 697.51 372.82 699.73"/>
            </g>
          </g>
        </g>
      </g>
    </g>
  </g>
</svg>